<svg width="100" height="100" viewBox="0 0 100 100" fill="none" xmlns="http://www.w3.org/2000/svg">
<circle cx="50" cy="50" r="50" fill="#EF4565"/>
<path d="M61.3567 76.2712C63.6035 76.2685 65.7575 75.3748 67.3462 73.786C68.9349 72.1973 69.8286 70.0434 69.8313 67.7966V33.8983C69.8286 31.6515 68.9349 29.4975 67.3462 27.9088C65.7575 26.3201 63.6035 25.4264 61.3567 25.4237H37.6279C35.3811 25.4264 33.2271 26.3201 31.6384 27.9088C30.0497 29.4975 29.156 31.6515 29.1533 33.8983V67.7966C29.156 70.0434 30.0497 72.1973 31.6384 73.786C33.2271 75.3748 35.3811 76.2685 37.6279 76.2712H61.3567ZM56.272 28.8135V30.5085C56.272 30.958 56.0934 31.3891 55.7755 31.7069C55.4577 32.0248 55.0266 32.2034 54.577 32.2034H44.4076C43.958 32.2034 43.5269 32.0248 43.2091 31.7069C42.8912 31.3891 42.7126 30.958 42.7126 30.5085V28.8135H56.272ZM32.5432 67.7966V33.8983C32.5432 32.5497 33.0789 31.2564 34.0324 30.3028C34.986 29.3492 36.2793 28.8135 37.6279 28.8135H39.3228V30.5085C39.3228 31.857 39.8585 33.1503 40.8121 34.1039C41.7657 35.0575 43.059 35.5932 44.4076 35.5932H54.577C55.9256 35.5932 57.2189 35.0575 58.1725 34.1039C59.1261 33.1503 59.6618 31.857 59.6618 30.5085V28.8135H61.3567C62.7053 28.8135 63.9986 29.3492 64.9522 30.3028C65.9057 31.2564 66.4415 32.5497 66.4415 33.8983V67.7966C66.4415 69.1451 65.9057 70.4385 64.9522 71.392C63.9986 72.3456 62.7053 72.8813 61.3567 72.8813H37.6279C36.2793 72.8813 34.986 72.3456 34.0324 71.392C33.0789 70.4385 32.5432 69.1451 32.5432 67.7966Z" fill="white"/>
<path d="M41.0172 47.4575H57.9663C58.4159 47.4575 58.847 47.2789 59.1648 46.961C59.4827 46.6432 59.6612 46.2121 59.6612 45.7625C59.6612 45.313 59.4827 44.8819 59.1648 44.5641C58.847 44.2462 58.4159 44.0676 57.9663 44.0676H41.0172C40.5677 44.0676 40.1366 44.2462 39.8187 44.5641C39.5008 44.8819 39.3223 45.313 39.3223 45.7625C39.3223 46.2121 39.5008 46.6432 39.8187 46.961C40.1366 47.2789 40.5677 47.4575 41.0172 47.4575Z" fill="white"/>
<path d="M41.0172 55.9322H57.9663C58.4159 55.9322 58.847 55.7536 59.1648 55.4358C59.4827 55.1179 59.6612 54.6868 59.6612 54.2373C59.6612 53.7878 59.4827 53.3566 59.1648 53.0388C58.847 52.7209 58.4159 52.5424 57.9663 52.5424H41.0172C40.5677 52.5424 40.1366 52.7209 39.8187 53.0388C39.5008 53.3566 39.3223 53.7878 39.3223 54.2373C39.3223 54.6868 39.5008 55.1179 39.8187 55.4358C40.1366 55.7536 40.5677 55.9322 41.0172 55.9322Z" fill="white"/>
<path d="M41.0172 64.4069H49.4918C49.9413 64.4069 50.3724 64.2284 50.6902 63.9105C51.0081 63.5926 51.1867 63.1615 51.1867 62.712C51.1867 62.2625 51.0081 61.8314 50.6902 61.5135C50.3724 61.1957 49.9413 61.0171 49.4918 61.0171H41.0172C40.5677 61.0171 40.1366 61.1957 39.8187 61.5135C39.5008 61.8314 39.3223 62.2625 39.3223 62.712C39.3223 63.1615 39.5008 63.5926 39.8187 63.9105C40.1366 64.2284 40.5677 64.4069 41.0172 64.4069Z" fill="white"/>
<path d="M56.2721 64.4069C57.2081 64.4069 57.967 63.6481 57.967 62.712C57.967 61.7759 57.2081 61.0171 56.2721 61.0171C55.336 61.0171 54.5771 61.7759 54.5771 62.712C54.5771 63.6481 55.336 64.4069 56.2721 64.4069Z" fill="white"/>
</svg>
