<svg width="100" height="100" viewBox="0 0 100 100" fill="none" xmlns="http://www.w3.org/2000/svg">
<circle cx="50" cy="50" r="50" fill="#EF4565"/>
<path d="M59.0703 60.1449C58.096 59.3443 56.8741 58.9067 55.6131 58.9067C54.3521 58.9067 53.1302 59.3443 52.1559 60.1449L39.197 49.8636C39.427 48.9559 39.4186 48.0042 39.1726 47.1007C38.9265 46.1973 38.4512 45.3727 37.7927 44.707C37.1342 44.0412 36.3149 43.557 35.4142 43.3011C34.5134 43.0452 33.5618 43.0264 32.6517 43.2465C31.7416 43.4666 30.9037 43.9182 30.2195 44.5574C29.5352 45.1966 29.0277 46.0017 28.7462 46.8948C28.4646 47.7878 28.4187 48.7385 28.6127 49.6545C28.8067 50.5706 29.2341 51.421 29.8535 52.1232L21.8205 61.2295C20.714 60.3503 19.3048 59.9442 17.9001 60.0997C16.8283 60.2056 15.8122 60.6275 14.9807 61.312C14.1492 61.9964 13.5398 62.9125 13.2299 63.9439C12.9199 64.9754 12.9235 66.0756 13.24 67.105C13.5566 68.1344 14.1719 69.0466 15.0078 69.7257C15.9637 70.5099 17.1607 70.9409 18.3972 70.9458H18.9621C19.6744 70.8765 20.3661 70.6675 20.9976 70.3307C21.6291 69.9938 22.188 69.5358 22.6423 68.9829C23.0967 68.4299 23.4376 67.7928 23.6455 67.1079C23.8534 66.4231 23.9244 65.704 23.8542 64.9918C23.7824 64.2435 23.5513 63.5192 23.1763 62.8677L31.5256 53.366C32.265 53.7259 33.0758 53.9151 33.8982 53.9196C34.7042 53.9222 35.5007 53.7451 36.2297 53.4011C36.9587 53.0571 37.6018 52.555 38.1123 51.9312C38.1424 51.8963 38.1689 51.8584 38.1914 51.8182L50.8114 61.8283C50.4149 62.5783 50.1992 63.4105 50.1814 64.2587C50.1635 65.1068 50.3441 65.9474 50.7086 66.7134C51.0732 67.4794 51.6117 68.1497 52.2812 68.6707C52.9506 69.1917 53.7326 69.5492 54.5647 69.7145C55.3967 69.8798 56.2559 69.8484 57.0737 69.6229C57.8915 69.3973 58.6453 68.9838 59.275 68.4154C59.9047 67.8469 60.3929 67.1392 60.7006 66.3486C61.0083 65.5581 61.1271 64.7065 61.0475 63.862C60.9836 63.1416 60.7757 62.4413 60.436 61.8028C60.0964 61.1643 59.632 60.6005 59.0703 60.1449ZM21.0071 67.579C20.7299 67.9199 20.3871 68.2016 19.9989 68.4074C19.6107 68.6131 19.1851 68.7387 18.7474 68.7766C18.2052 68.8338 17.6572 68.7561 17.1522 68.5506C16.6472 68.345 16.2007 68.0178 15.8526 67.5982C15.5044 67.1786 15.2653 66.6794 15.1565 66.1451C15.0477 65.6108 15.0726 65.0579 15.2289 64.5356C15.3852 64.0132 15.6681 63.5375 16.0525 63.1508C16.4369 62.7641 16.9109 62.4783 17.4323 62.3189C17.9537 62.1594 18.5065 62.1313 19.0414 62.2369C19.5764 62.3425 20.0769 62.5786 20.4986 62.9242C20.6311 63.036 20.7556 63.1568 20.8715 63.2858C20.9272 63.4069 21.0081 63.5147 21.1087 63.6021C21.4366 64.0578 21.6392 64.5915 21.6962 65.1499C21.7484 65.5803 21.7143 66.0167 21.5959 66.4338C21.4776 66.8508 21.2774 67.2402 21.0071 67.579ZM36.4967 50.6319C36.0122 51.2209 35.3386 51.6238 34.5905 51.7721C33.8424 51.9205 33.066 51.805 32.3935 51.4454C31.7209 51.0858 31.1937 50.5043 30.9015 49.7998C30.6094 49.0954 30.5704 48.3114 30.7911 47.5814C31.0118 46.8514 31.4786 46.2203 32.1121 45.7957C32.7456 45.3711 33.5067 45.179 34.2658 45.2523C35.0249 45.3256 35.7352 45.6596 36.2759 46.1975C36.8165 46.7354 37.1541 47.4441 37.2311 48.2028C37.309 49.0631 37.0452 49.9194 36.4967 50.5867V50.6319ZM58.2003 66.4492C57.7869 66.9571 57.2321 67.3309 56.6062 67.5234C55.9802 67.7159 55.3112 67.7184 54.6839 67.5307C54.0565 67.3429 53.4989 66.9732 53.0817 66.4685C52.6644 65.9637 52.4062 65.3466 52.3398 64.6951C52.2734 64.0435 52.4017 63.387 52.7085 62.8084C53.0154 62.2299 53.4869 61.7553 54.0635 61.4448C54.64 61.1343 55.2958 61.0017 55.9477 61.064C56.5996 61.1262 57.2184 61.3804 57.7258 61.7944C58.4056 62.349 58.8374 63.1508 58.9264 64.0236C59.0153 64.8964 58.7542 65.7688 58.2003 66.4492Z" fill="white" stroke="white" stroke-width="1.3"/>
<path d="M65.3939 54.2353C65.2855 54.1471 65.1605 54.0815 65.0263 54.0423C64.8922 54.003 64.7515 53.9909 64.6127 54.0067C64.4738 54.0225 64.3394 54.0658 64.2175 54.1342C64.0956 54.2025 63.9885 54.2945 63.9026 54.4048L62.287 56.4271C62.1985 56.5365 62.1327 56.6624 62.0933 56.7975C62.0539 56.9325 62.0417 57.0741 62.0575 57.2139C62.0732 57.3537 62.1166 57.489 62.1851 57.6119C62.2536 57.7348 62.3458 57.8428 62.4564 57.9298C62.6421 58.0787 62.8737 58.1585 63.1117 58.1557C63.2719 58.1571 63.4303 58.1223 63.5751 58.0538C63.7198 57.9853 63.8473 57.885 63.9478 57.7603L65.5634 55.7492C65.6551 55.6402 65.7238 55.5136 65.765 55.3773C65.8063 55.2409 65.8195 55.0975 65.8036 54.9559C65.7877 54.8143 65.7433 54.6774 65.6728 54.5535C65.6024 54.4296 65.5075 54.3213 65.3939 54.2353Z" fill="white" stroke="white" stroke-width="1.3"/>
<path d="M78.3939 38.2353C78.2855 38.1471 78.1605 38.0815 78.0263 38.0423C77.8922 38.003 77.7515 37.9909 77.6127 38.0067C77.4738 38.0225 77.3394 38.0658 77.2175 38.1342C77.0956 38.2025 76.9885 38.2945 76.9026 38.4048L75.287 40.4271C75.1985 40.5365 75.1327 40.6624 75.0933 40.7975C75.0539 40.9325 75.0417 41.0741 75.0575 41.2139C75.0732 41.3537 75.1166 41.489 75.1851 41.6119C75.2536 41.7348 75.3458 41.8428 75.4564 41.9298C75.6421 42.0787 75.8737 42.1585 76.1117 42.1557C76.2719 42.1571 76.4303 42.1223 76.5751 42.0538C76.7198 41.9853 76.8473 41.885 76.9478 41.7603L78.5634 39.7492C78.6551 39.6402 78.7238 39.5136 78.765 39.3773C78.8063 39.2409 78.8195 39.0975 78.8036 38.9559C78.7877 38.8143 78.7433 38.6774 78.6728 38.5535C78.6024 38.4296 78.5075 38.3213 78.3939 38.2353Z" fill="white" stroke="white" stroke-width="1.3"/>
<path d="M73.1677 45.2059C72.9415 45.0467 72.6647 44.976 72.3898 45.0072C72.115 45.0385 71.8611 45.1695 71.6764 45.3754L68.287 49.5896C68.1985 49.699 68.1327 49.8249 68.0933 49.9599C68.0539 50.095 68.0417 50.2365 68.0575 50.3763C68.0732 50.5161 68.1166 50.6514 68.1851 50.7743C68.2536 50.8972 68.3458 51.0053 68.4564 51.0922C68.6421 51.2411 68.8737 51.321 69.1117 51.3182C69.2719 51.3196 69.4303 51.2847 69.5751 51.2163C69.7198 51.1478 69.8473 51.0474 69.9478 50.9228L73.3372 46.7086C73.4996 46.4814 73.5722 46.2022 73.5409 45.9247C73.5096 45.6472 73.3767 45.3912 73.1677 45.2059Z" fill="white" stroke="white" stroke-width="1.3"/>
<path d="M85.7024 29.1936C85.5615 29.0936 85.398 29.03 85.2265 29.0083C85.0551 28.9866 84.8809 29.0076 84.7195 29.0693L76.7431 32.0181C76.6116 32.0658 76.491 32.1393 76.3883 32.2342C76.2856 32.3292 76.2028 32.4437 76.145 32.571C76.0871 32.6983 76.0552 32.8359 76.0512 32.9757C76.0472 33.1155 76.0712 33.2547 76.1217 33.3852C76.1695 33.5167 76.2429 33.6375 76.3377 33.7406C76.4324 33.8437 76.5466 33.927 76.6736 33.9858C76.8007 34.0446 76.9381 34.0777 77.078 34.0832C77.2179 34.0887 77.3575 34.0665 77.4887 34.0178L83.9964 31.6001L83.8947 38.5484C83.8856 38.6916 83.9055 38.8351 83.9533 38.9704C84.0011 39.1056 84.0759 39.2298 84.173 39.3354C84.2701 39.441 84.3877 39.5258 84.5185 39.5847C84.6493 39.6436 84.7907 39.6754 84.9342 39.6782C85.2139 39.6782 85.4823 39.5679 85.6812 39.3711C85.88 39.1744 85.9932 38.9072 85.9962 38.6275L86.1544 30.0861C86.1526 29.9126 86.1109 29.7419 86.0326 29.5871C85.9542 29.4323 85.8412 29.2977 85.7024 29.1936Z" fill="white" stroke="white" stroke-width="1.3"/>
</svg>
