<svg width="100" height="100" viewBox="0 0 100 100" fill="none" xmlns="http://www.w3.org/2000/svg">
<circle cx="50" cy="50" r="50" fill="#EF4565"/>
<path d="M48.384 53.8942V41.192C48.384 40.5328 47.8512 40 47.192 40C46.534 40 46 40.5328 46 41.192V54.3794C46 54.433 46.0238 54.4771 46.0298 54.5284C46.0429 54.6285 46.0513 54.731 46.0894 54.824C46.1275 54.9194 46.1895 54.998 46.2491 55.0755C46.2813 55.1196 46.2968 55.1685 46.335 55.2066L51.438 60.4754C51.6728 60.715 51.9828 60.8378 52.2951 60.8378C52.5955 60.8378 52.8935 60.7245 53.1235 60.5028C53.5956 60.0439 53.6099 59.2893 53.1509 58.8173L48.384 53.8942Z" fill="white" stroke="white" stroke-width="1.2"/>
<path d="M64.2472 33.023C59.6627 29.3468 53.9422 27.61 48.0881 28.0892C47.3467 26.5205 45.7589 25.4238 43.9113 25.4238C41.358 25.4238 39.2803 27.5003 39.2803 30.0548C39.2803 32.607 41.358 34.6859 43.9113 34.6859C46.3263 34.6859 48.2944 32.8191 48.5006 30.4554C53.6608 30.0894 58.7079 31.6378 62.7572 34.8837C71.5603 41.9429 72.9776 54.8453 65.9184 63.6473C65.5084 64.1634 65.5906 64.9132 66.1044 65.3232C66.3237 65.4973 66.586 65.5843 66.8494 65.5843C67.1987 65.5843 67.5431 65.4329 67.7804 65.1397C75.6608 55.3102 74.0766 40.9034 64.2472 33.023Z" fill="white" stroke="white" stroke-width="1.2"/>
<path d="M56.0023 67.0104C53.5861 67.0104 51.618 68.8771 51.4106 71.2409C46.2492 71.6056 41.2057 70.0608 37.1552 66.8125C28.3521 59.7533 26.9336 46.8485 33.9928 38.0478C34.404 37.5328 34.3218 36.783 33.808 36.3718C33.2943 35.9605 32.5445 36.0416 32.132 36.5554C24.2516 46.3824 25.8358 60.7916 35.664 68.672C39.7526 71.9501 44.7448 73.6964 49.9218 73.6964C50.5524 73.6964 51.1901 73.6571 51.8231 73.6035C52.5657 75.1745 54.1535 76.2712 56.0023 76.2712C58.5568 76.2712 60.6333 74.1947 60.6333 71.6402C60.6333 69.0893 58.5544 67.0104 56.0023 67.0104Z" fill="white" stroke="white" stroke-width="1.2"/>
</svg>
