<svg width="100" height="100" viewBox="0 0 100 100" fill="none" xmlns="http://www.w3.org/2000/svg">
<circle cx="50" cy="50" r="50" fill="#EF4565"/>
<path d="M67.4219 69.0694C64.5984 71.8914 61.1305 73.984 57.3177 75.1667C53.5049 76.3493 49.4615 76.5864 45.5365 75.8576C41.6116 75.1288 37.9229 73.4559 34.7888 70.9833C31.6547 68.5107 29.1693 65.3126 27.547 61.6651C25.9248 58.0175 25.2144 54.03 25.4772 50.0466C25.74 46.0632 26.9681 42.2036 29.0555 38.8008C31.143 35.398 34.027 32.5542 37.4588 30.5148C40.8906 28.4754 44.7671 27.3016 48.7538 27.0948C48.9668 27.0701 49.1825 27.0893 49.3878 27.1512C49.5931 27.2131 49.7835 27.3164 49.9474 27.4547C50.1112 27.593 50.245 27.7634 50.3405 27.9554C50.436 28.1474 50.4912 28.3568 50.5026 28.5709C50.5141 28.785 50.4816 28.9992 50.4071 29.2003C50.3327 29.4014 50.2178 29.585 50.0697 29.74C49.9215 29.895 49.7432 30.018 49.5457 30.1015C49.3482 30.185 49.1357 30.2271 48.9213 30.2253C44.0075 30.477 39.3292 32.4087 35.6693 35.6972C32.0093 38.9856 29.5899 43.4313 28.8158 48.2903C28.0418 53.1493 28.96 58.1268 31.4169 62.3897C33.8738 66.6526 37.7203 69.9424 42.3127 71.7085C46.9051 73.4745 51.9647 73.6097 56.6449 72.0915C61.325 70.5732 65.3417 67.4936 68.0228 63.368C70.7039 59.2424 71.8867 54.3211 71.3733 49.4277C70.8598 44.5343 68.6813 39.9657 65.2023 36.4864L64.1657 35.4499L60.5117 39.104C60.3663 39.2503 60.1934 39.3663 60.0029 39.4454C59.8124 39.5244 59.6081 39.565 59.4019 39.5646C59.2311 39.5624 59.0616 39.5341 58.8993 39.4809C58.6214 39.3878 58.3751 39.2189 58.1882 38.9932C58.0013 38.7674 57.8814 38.4939 57.8418 38.2035L56.3655 27.1995C56.3315 26.9596 56.3539 26.7151 56.4309 26.4855C56.508 26.2558 56.6375 26.0472 56.8094 25.8765C56.9812 25.7057 57.1905 25.5773 57.4206 25.5016C57.6507 25.4259 57.8953 25.405 58.135 25.4405L69.1286 26.9168C69.4189 26.9563 69.6925 27.0763 69.9182 27.2632C70.1439 27.4501 70.3129 27.6964 70.4059 27.9743C70.5029 28.251 70.519 28.5497 70.4522 28.8353C70.3855 29.1209 70.2386 29.3815 70.029 29.5866L66.3854 33.2302L67.4219 34.2668C72.0282 38.8866 74.6148 45.1443 74.6148 51.6681C74.6148 58.1919 72.0282 64.4495 67.4219 69.0694Z" fill="white" stroke="white" stroke-width="1.2"/>
</svg>
