<svg width="100" height="100" viewBox="0 0 100 100" fill="none" xmlns="http://www.w3.org/2000/svg">
<circle cx="50" cy="50" r="50" fill="#EF4565"/>
<path d="M80.3224 42.6935C80.1722 42.3289 79.8291 42.0715 79.443 42.0072C79.0355 41.9643 78.6495 42.1144 78.4135 42.4361L72.9444 49.5782C72.7084 49.8999 72.6441 50.3074 72.7942 50.6721C72.9444 51.0367 73.2875 51.294 73.6736 51.3584L76.9551 51.7873C72.8586 69.8034 61.1267 78.3611 41.1374 77.9321C40.5369 77.9321 40.0221 78.404 40.0007 79.0259C39.9792 79.6479 40.4725 80.1412 41.0945 80.1627C41.5878 80.1627 42.0597 80.1841 42.553 80.1841C62.7138 80.1841 75.0248 70.7257 79.1857 52.0876L82.6173 52.538C82.6602 52.538 82.7245 52.538 82.7674 52.538C83.1106 52.538 83.4323 52.3879 83.6468 52.1091C83.8827 51.7873 83.947 51.3798 83.7969 51.0152L80.3224 42.6935ZM75.8827 49.4066L79.0141 45.3316L80.9873 50.093L75.8827 49.4066Z" fill="white" stroke="white"/>
<path d="M23.2029 69.7981L20.5434 71.8356L18.5058 69.1761C18.3557 68.983 18.0769 68.9401 17.8838 69.0903C17.6908 69.2404 17.6479 69.5192 17.7981 69.7123L19.8356 72.3718L17.1761 74.4093C16.983 74.5594 16.9401 74.8383 17.0903 75.0313C17.1761 75.1385 17.3048 75.2029 17.4334 75.2029C17.5192 75.2029 17.6265 75.1814 17.7123 75.1171L20.3718 73.0796L22.4093 75.7391C22.4951 75.8463 22.6238 75.9107 22.7525 75.9107C22.8383 75.9107 22.9455 75.8892 23.0313 75.8249C23.2243 75.6747 23.2672 75.3959 23.1171 75.2029L21.0796 72.5434L23.7391 70.5058C23.9321 70.3557 23.975 70.0769 23.8249 69.8838C23.6747 69.6694 23.3959 69.6479 23.2029 69.7981Z" fill="white"/>
<path d="M46.91 38.1826C47.1623 38.471 47.5408 38.6441 47.9193 38.6441C48.1717 38.6441 48.4871 38.5864 48.7394 38.4133C49.3071 38.0095 49.4333 37.2596 48.9917 36.7405L42.9989 29.5876L50.8211 24.05C51.3889 23.6462 51.515 22.8963 51.0734 22.3771C50.6319 21.858 49.8118 21.7426 49.2441 22.1464L41.4218 27.6264L35.429 20.4735C34.9874 19.9544 34.1673 19.839 33.5996 20.2428C33.0318 20.6466 32.9057 21.3965 33.3473 21.9157L39.3401 29.0685L31.5179 34.5485C30.9501 34.9523 30.824 35.7022 31.2655 36.2213C31.5179 36.5098 31.8964 36.6828 32.2749 36.6828C32.5272 36.6828 32.8426 36.6251 33.0949 36.4521L40.9172 30.9721L46.91 38.1826Z" fill="white" stroke="white"/>
<path d="M45.1067 67.5524C45.5194 67.5982 45.9322 67.6441 46.345 67.6441C48.3629 67.6441 50.335 66.9565 51.9861 65.719C53.9582 64.2064 55.2423 62.0063 55.5634 59.5312C55.8844 57.056 55.2423 54.6268 53.7289 52.6558C52.2154 50.6849 50.014 49.4015 47.5374 49.0806C45.0608 48.7598 42.6301 49.4015 40.658 50.9141C38.6859 52.4266 37.4017 54.6268 37.0807 57.1019C36.7597 59.577 37.4017 62.0063 38.9152 63.9772C40.4745 65.994 42.6301 67.2315 45.1067 67.5524ZM38.9611 57.3769C39.2362 55.406 40.2452 53.6642 41.8046 52.4725C43.1346 51.4641 44.6939 50.9599 46.2991 50.9599C46.6201 50.9599 46.9412 50.9599 47.2622 51.0057C49.2343 51.2808 50.9771 52.2891 52.1695 53.8476C53.362 55.406 53.9123 57.3769 53.6371 59.3478C53.362 61.3188 52.353 63.0605 50.7936 64.2522C49.2343 65.444 47.2622 65.994 45.2901 65.719C43.318 65.444 41.5752 64.4356 40.3828 62.8772C39.2362 61.2729 38.7317 59.3478 38.9611 57.3769Z" fill="white" stroke="white"/>
<path d="M77.8233 21.7107C77.1155 20.7884 76.086 20.1879 74.9278 20.0377C73.7696 19.8876 72.6329 20.1879 71.7107 20.8956C70.7884 21.6034 70.1879 22.6329 70.0377 23.7911C69.8876 24.9493 70.1879 26.086 70.8956 27.0082C71.6034 27.9305 72.6329 28.531 73.7911 28.6812C73.9841 28.7026 74.1771 28.7241 74.3702 28.7241C75.3139 28.7241 76.2361 28.4023 77.0082 27.8233C77.9305 27.1155 78.531 26.086 78.6812 24.9278C78.8313 23.7911 78.531 22.6329 77.8233 21.7107ZM77.8018 24.8206C77.6731 25.7428 77.2013 26.5578 76.472 27.1155C75.7428 27.6731 74.8206 27.9305 73.8983 27.8018C72.9761 27.6731 72.1611 27.2013 71.6034 26.472C71.0458 25.7428 70.7884 24.8206 70.9171 23.8983C71.0458 22.9761 71.5176 22.1611 72.2468 21.6034C72.8688 21.1316 73.5981 20.8956 74.3487 20.8956C74.4989 20.8956 74.649 20.8956 74.7991 20.9171C75.7214 21.0458 76.5364 21.5176 77.094 22.2468C77.6731 22.9975 77.9305 23.8983 77.8018 24.8206Z" fill="white"/>
</svg>
