<svg width="25" height="25" viewBox="0 0 25 25" fill="none" xmlns="http://www.w3.org/2000/svg">
<path d="M12.5 0C9.01786 0 5.89286 1.42857 3.66071 3.66071C1.42857 5.89286 0 9.01786 0 12.5C0 19.375 5.625 25 12.5 25C15.9821 25 19.1071 23.5714 21.3393 21.3393C23.5714 19.1071 25 15.9821 25 12.5C25 5.625 19.375 0 12.5 0ZM20.2679 17.3214C19.9107 17.4107 17.9464 17.3214 17.8571 17.3214C17.3214 17.3214 16.875 17.1429 16.5179 16.7857C16.0714 16.4286 15.7143 15.9821 15.3571 15.5357C15.2679 15.4464 15.0893 15.2679 15 15.1786C14.6429 14.9107 14.375 15 14.1964 15.3571C14.1071 15.7143 13.9286 16.5179 13.9286 16.6071C13.9286 16.9643 13.6607 17.2321 13.2143 17.2321C11.9643 17.3214 10.8036 17.1429 9.73214 16.6071C8.83928 16.0714 8.03571 15.4464 7.41071 14.5536C6.42857 13.2143 5.625 11.7857 4.82143 10.3571C4.82143 10.2679 4.01786 8.66071 4.01786 8.57143C3.92857 8.30357 4.01786 8.125 4.19643 8.03571C4.46429 8.03571 6.875 8.03571 6.96429 8.03571C7.32143 8.03571 7.58929 8.21429 7.76786 8.66071C8.21429 9.82143 8.83929 10.8929 9.64286 11.875C9.73214 11.9643 9.91071 12.1429 10 12.2321C10.1786 12.3214 10.3571 12.3214 10.4464 12.0536C10.5357 11.7857 10.625 11.3393 10.625 11.0714C10.625 10.4464 10.625 10 10.625 9.28571C10.625 8.83928 10.4464 8.48214 9.82143 8.39286C9.64286 8.39286 9.64286 8.21429 9.73214 8.03571C10 7.67857 10.3571 7.67857 10.7143 7.67857C11.3393 7.67857 11.9643 7.67857 12.5893 7.67857C12.8571 7.67857 13.125 7.67857 13.3929 7.76786C13.75 7.85714 13.9286 8.03571 13.9286 8.39286C13.9286 8.57143 13.9286 8.75 13.9286 8.92857C13.9286 9.64286 13.8393 10.3571 13.8393 11.0714C13.8393 11.3393 13.8393 11.6071 13.9286 11.9643C14.0179 12.3214 14.2857 12.4107 14.5536 12.1429C14.9107 11.7857 15.1786 11.4286 15.4464 10.9821C15.9821 10.2679 16.3393 9.46429 16.6964 8.57143C16.875 8.125 16.9643 8.03571 17.5 8.03571C18.3929 8.03571 19.1964 8.03571 20.0893 8.03571C20.2679 8.03571 20.3571 8.03571 20.5357 8.125C20.8036 8.21429 20.8929 8.39286 20.8036 8.66071C20.7143 9.19643 20.3571 9.73214 20 10.1786C19.4643 10.8929 18.9286 11.6964 18.3929 12.4107C18.3036 12.5 18.3036 12.5893 18.2143 12.6786C18.0357 13.0357 18.0357 13.2143 18.3036 13.5714C18.75 14.0179 19.2857 14.5536 19.7321 15C20.0893 15.3571 20.3571 15.7143 20.625 16.1607C21.0714 16.6964 20.8929 17.2321 20.2679 17.3214Z" fill="#5F6C7B"/>
</svg>
