<svg width="19" height="18" viewBox="0 0 19 18" fill="none" xmlns="http://www.w3.org/2000/svg">
<path d="M0.88 7.77307H0.42C0.18 7.77307 0 7.94929 0 8.18424V11.5128C0 11.7477 0.18 11.9239 0.42 11.9239H0.88C1.12 11.9239 1.3 11.7477 1.3 11.5128V8.18424C1.32 7.94929 1.12 7.77307 0.88 7.77307Z" fill="#094067"/>
<path d="M16.8203 7.02912H15.9003C15.6603 7.02912 15.4803 7.20534 15.4803 7.44029V9.49614H13.9803C13.8603 8.5759 13.6603 7.10744 13.6003 6.83333C13.4003 6.05014 12.0803 4.13135 10.5803 4.13135H8.44025C6.94025 4.13135 5.62025 6.05014 5.42025 6.83333C5.34025 7.10744 5.16025 8.5759 5.04025 9.49614H3.54025V7.44029C3.54025 7.20534 3.36025 7.02912 3.12025 7.02912H2.18025C1.94025 7.02912 1.76025 7.20534 1.76025 7.44029V12.2373C1.76025 12.4722 1.94025 12.6485 2.18025 12.6485H3.10025C3.34025 12.6485 3.52025 12.4722 3.52025 12.2373V10.1814H5.00025C5.08025 10.4751 5.34025 10.7101 5.66025 10.7492C5.70025 10.7492 5.72025 10.7492 5.76025 10.7492C6.12025 10.7492 6.42025 10.5143 6.52025 10.1814H7.76025L6.90025 16.9951C6.84025 17.4846 7.20025 17.9349 7.70025 17.9937C8.20025 18.0524 8.66025 17.7 8.72025 17.2105L9.52025 10.945L10.3203 17.2105C10.3803 17.6608 10.7803 17.9937 11.2203 17.9937C11.2603 17.9937 11.3003 17.9937 11.3403 17.9937C11.8403 17.9349 12.2003 17.4846 12.1403 16.9951L11.2403 10.1814H12.4803C12.5803 10.5143 12.8803 10.7492 13.2403 10.7492C13.2803 10.7492 13.3003 10.7492 13.3403 10.7492C13.6603 10.7101 13.9203 10.4751 14.0003 10.1814H15.4803V12.2373C15.4803 12.4722 15.6603 12.6485 15.9003 12.6485H16.8403C17.0803 12.6485 17.2603 12.4722 17.2603 12.2373V7.44029C17.2603 7.22492 17.0603 7.02912 16.8203 7.02912ZM6.62025 9.49614C6.76025 8.41927 6.90025 7.38155 6.94025 7.20534C7.00025 6.97038 7.32025 6.50047 7.68025 6.12846L7.74025 9.47656H6.62025V9.49614ZM11.2403 9.49614L11.3003 6.14804C11.6603 6.50047 11.9803 6.98996 12.0403 7.22492C12.0803 7.40113 12.2203 8.43885 12.3603 9.51572H11.2403V9.49614Z" fill="#094067"/>
<path d="M18.5802 7.77307H18.1202C17.8802 7.77307 17.7002 7.94929 17.7002 8.18424V11.5128C17.7002 11.7477 17.8802 11.9239 18.1202 11.9239H18.5802C18.8202 11.9239 19.0002 11.7477 19.0002 11.5128V8.18424C19.0002 7.94929 18.8202 7.77307 18.5802 7.77307Z" fill="#094067"/>
<path d="M9.50016 3.60264C10.5164 3.60264 11.3402 2.79616 11.3402 1.80132C11.3402 0.806478 10.5164 0 9.50016 0C8.48395 0 7.66016 0.806478 7.66016 1.80132C7.66016 2.79616 8.48395 3.60264 9.50016 3.60264Z" fill="#094067"/>
</svg>
