<svg width="25" height="25" viewBox="0 0 25 25" fill="none" xmlns="http://www.w3.org/2000/svg">
<path d="M16.9965 8.96722L9.98211 15.2172C9.89218 15.3078 9.89218 15.3984 9.89218 15.489L9.6224 17.9346C9.6224 18.0252 9.53247 18.0252 9.44254 17.9346L8.3634 14.3114C8.27348 14.1303 8.3634 13.9491 8.54326 13.8585L16.7267 8.69548C16.9965 8.6049 17.1764 8.87664 16.9965 8.96722Z" fill="#5F6C7B"/>
<path d="M12.5 0C9.08273 0 5.93525 1.3587 3.68705 3.62319C1.43885 5.88768 0 9.05797 0 12.5C0 15.942 1.34892 19.1123 3.68705 21.3768C5.93525 23.6413 9.08273 25 12.5 25C15.9173 25 19.0647 23.6413 21.313 21.3768C23.5612 19.1123 25 15.942 25 12.5C24.9101 5.61594 19.3345 0 12.5 0ZM19.8741 7.1558L17.3561 19.4746C17.2662 20.0181 16.5468 20.2899 16.0971 19.9275L12.2302 17.029L10.2518 19.0217C9.89209 19.3841 9.35252 19.2029 9.17266 18.75L7.73381 14.221L3.95683 13.0435C3.41727 12.8623 3.41727 12.2283 3.95683 12.0471L18.9748 6.15942C19.4245 6.06884 20.054 6.52174 19.8741 7.1558Z" fill="#5F6C7B"/>
</svg>
